<svg width="738" height="145" viewBox="0 0 738 145" fill="none" xmlns="http://www.w3.org/2000/svg">
<g clip-path="url(#clip0_8001_16975)">
<path d="M593 0.509766V7.93977H568.13V9.53977H592.46V30.7398H582.67V16.9098H568.13V31.0598H558.33V16.9098H544V30.7398H534.2V9.53977H558.29V7.93977H534V0.509766H593ZM593 41.2398V48.6698H550.58L548.08 51.7498H578.89C579.7 51.7498 580.1 51.5098 580.1 51.0398V49.9998H590.16L590.35 51.4798C590.362 51.5877 590.383 51.6946 590.41 51.7998V55.3998C590.41 57.7931 588.447 58.9864 584.52 58.9798H536.11V53.5998L539.25 48.6698H534V41.2398H593ZM590.19 32.5298V39.7698H536.55V32.5298H590.19ZM556.85 18.2498V23.8898H545.52V18.2498H556.85ZM556.85 25.0998V30.7398H545.52V25.0998H556.85ZM581.12 18.2498V23.8898H569.6V18.2498H581.12ZM581.12 25.0998V30.7398H569.6V25.0998H581.12Z" fill="#231815"/>
<path d="M626.47 0H635.47C635.21 3.12 634.37 5.29 632.97 6.53C631.333 7.75481 629.309 8.34779 627.27 8.2H621.6V9.8H635.18V16.65H621.6V18.25H634.22V37.72C634.22 40.9733 632.17 42.5967 628.07 42.59H621.6V43.8H633.71V50.53H621.6V52H634.47V59H599.57V52H613.15V50.53H600.34V43.8H613.15V42.59H600.92V18.25H613.15V16.65H600.08V9.8H613.15V8.2H600.66V1.6H623.46C624.063 1.65791 624.67 1.5371 625.206 1.25261C625.741 0.968121 626.18 0.53251 626.47 0ZM609.11 27.15H613.11V24.85H609.11V27.15ZM613.11 35.86V33.56H609.11V35.86H613.11ZM621.56 24.86V27.16H626V24.86H621.56ZM623.87 35.86C625.27 35.86 625.98 35.37 625.98 34.39V33.56H621.6V35.86H623.87ZM636.27 4.42H639.47L639.6 0H648.05L647.86 4.42H658.55V51.49C658.55 56.4767 655.82 58.9733 650.36 58.98H646.7V50.78H647.28C648.78 50.78 649.52 50.16 649.52 48.93V12.87H647.52L646 49.25C645.87 52.49 645.24 54.88 644.08 56.42C643.607 57.1891 642.95 57.828 642.167 58.2786C641.385 58.7291 640.503 58.9771 639.6 59H635.18V50.53H636.52C637.42 50.53 637.89 49.18 637.93 46.53L639.15 12.91H636.27V4.42Z" fill="#231815"/>
<path d="M666.24 4.16H680.33L680.58 0H691.86L691.54 4.16H722.79V50C722.79 55.8467 719.397 58.7733 712.61 58.78H700.5V48.98H708.44C710.32 48.98 711.26 48.29 711.26 46.98V14.09H690.83L688.4 45.85C687.667 54.4367 685.553 58.73 682.06 58.73H667.27V49.18H675.2C676.53 49.18 677.38 46.9 677.77 42.33L679.69 14.09H666.24V4.16Z" fill="#231815"/>
<path d="M191.5 80.8799L159.42 120.61V143.61H142V120.61L110.21 80.8799H130.5L149.43 104.11C149.56 104.63 150.01 104.88 150.79 104.88C151.113 104.909 151.438 104.853 151.732 104.718C152.027 104.583 152.281 104.373 152.47 104.11L171 80.8799H191.5Z" fill="#F8B914"/>
<path d="M273 130.91C273 134.91 270.93 138.22 266.79 140.84C262.606 143.375 257.78 144.653 252.89 144.52C248.523 144.573 244.211 143.542 240.34 141.52C236.381 139.501 233.263 136.147 231.54 132.05C231.2 131.223 229.627 126.74 226.82 118.6C224.28 111.22 222.06 105.443 220.16 101.27C217.53 95.5699 215.4 92.8199 213.76 92.9899C212.909 93.0787 212.112 93.4522 211.5 94.0499C211.037 94.6448 210.806 95.3875 210.85 96.1399V143.59H193.38V92.9299C193.38 88.3099 195.557 84.7932 199.91 82.3799C203.663 80.3132 208.47 79.2766 214.33 79.2699C217.984 79.1733 221.604 79.9885 224.864 81.6419C228.123 83.2953 230.92 85.7348 233 88.7399C236.107 92.9532 239.06 99.7666 241.86 109.18C244.973 119.527 247.237 125.94 248.65 128.42C248.994 129.055 249.511 129.58 250.141 129.934C250.771 130.288 251.488 130.456 252.21 130.42C253.03 130.436 253.826 130.143 254.44 129.6C254.753 129.311 254.999 128.957 255.162 128.564C255.324 128.17 255.398 127.745 255.38 127.32V79.9999H273V130.91Z" fill="#F8B914"/>
<path d="M358.23 143.64H339.54L318.9 94.9999C318.77 94.4899 318.32 94.2299 317.55 94.2299C317.236 94.2065 316.922 94.2651 316.638 94.4001C316.354 94.5352 316.11 94.7419 315.93 94.9999L295.75 143.64H276.81C277.877 140.64 280.193 134.67 283.76 125.73C287.327 116.79 290.787 108.34 294.14 100.38C297.893 91.5199 300.177 86.5899 300.99 85.5899C302.845 83.6614 305.194 82.2781 307.78 81.5899C314.102 79.7233 320.828 79.7233 327.15 81.5899C329.726 82.2826 332.063 83.6657 333.91 85.5899C334.863 86.6233 337.197 91.5199 340.91 100.28C343.203 105.66 346.61 114.11 351.13 125.63C353.877 132.63 356.243 138.633 358.23 143.64Z" fill="#F8B914"/>
<path d="M428.53 143.64H389.91C380.637 143.64 373.303 140.417 367.91 133.97C363.083 128.184 360.667 121.05 360.66 112.57C360.66 103.95 363.12 96.6169 368.04 90.5702C373.473 83.8502 380.757 80.4902 389.89 80.4902H428.51V93.8102H392.82C390.797 93.76 388.797 94.2393 387.016 95.2005C385.236 96.1618 383.738 97.5716 382.67 99.2902C380.379 102.914 379.232 107.145 379.38 111.43C379.243 115.911 380.433 120.333 382.8 124.14C385.3 128 388.633 129.927 392.8 129.92H428.51L428.53 143.64Z" fill="#4679BC"/>
<path d="M502.31 143.64H470.81C460.857 143.64 452.97 141.64 447.15 137.64C442.602 134.54 439.192 130.038 437.44 124.82C436.163 121.094 435.531 117.178 435.57 113.24C435.57 112.273 435.57 111.607 435.57 111.24C435.587 110.882 435.641 110.527 435.73 110.18V80.46H453.19V110.13C453.035 114.972 454.518 119.725 457.4 123.62C460.633 127.82 465.093 129.92 470.78 129.92H502.28L502.31 143.64Z" fill="#E84433"/>
<path d="M561.17 143.64H535.36C526.093 143.64 518.783 140.417 513.43 133.97C508.61 128.184 506.197 121.05 506.19 112.57C506.19 103.95 508.647 96.6169 513.56 90.5702C519 83.8502 526.267 80.4902 535.36 80.4902H561.17C570.263 80.4902 577.527 83.8502 582.96 90.5702C587.873 96.6369 590.33 103.997 590.33 112.65C590.33 121.13 587.937 128.247 583.15 134C577.803 140.427 570.477 143.64 561.17 143.64ZM558.26 129.92C562.387 129.92 565.72 127.994 568.26 124.14C570.63 120.334 571.824 115.912 571.69 111.43C571.839 107.143 570.689 102.912 568.39 99.2902C567.334 97.5771 565.848 96.1701 564.079 95.2088C562.311 94.2475 560.322 93.7653 558.31 93.8102H538.31C536.297 93.7656 534.306 94.2477 532.536 95.2089C530.767 96.1701 529.279 97.577 528.22 99.2902C525.926 102.914 524.776 107.144 524.92 111.43C524.78 115.904 525.947 120.321 528.28 124.14C530.78 128 534.113 129.927 538.28 129.92H558.26Z" fill="#36A251"/>
<path d="M661.86 121C661.86 128.333 658.323 134.16 651.25 138.48C644.87 142.413 637.067 144.377 627.84 144.37C618.88 144.37 611.337 142.44 605.21 138.58C598.35 134.26 594.92 128.4 594.92 121V80.46H612.06V118.71C612.06 122.043 613.83 124.71 617.37 126.71C620.966 128.622 624.998 129.566 629.07 129.45C632.946 129.579 636.786 128.667 640.19 126.81C643.557 124.85 645.223 122.163 645.19 118.75V80.46H661.81L661.86 121Z" fill="#E84433"/>
<path d="M707.78 143.64H669.17V80.46H707.78C716.92 80.46 724.207 83.7933 729.64 90.46C734.547 96.52 737 103.89 737 112.57C737 121.043 734.587 128.177 729.76 133.97C724.38 140.417 717.053 143.64 707.78 143.64ZM704.87 129.92C709.01 129.92 712.343 127.993 714.87 124.14C717.236 120.332 718.429 115.911 718.3 111.43C718.449 107.143 717.299 102.911 715 99.29C713.941 97.5767 712.453 96.1699 710.683 95.2087C708.914 94.2475 706.923 93.7653 704.91 93.81H686.63V129.92H704.87Z" fill="#4679BC"/>
<path d="M71.55 57.5698H0L8.55 73.5698H71.55C75.6513 73.5804 79.5809 75.2171 82.4772 78.1209C85.3735 81.0246 87 84.9585 87 89.0598V112.14C86.9947 116.241 85.3631 120.173 82.4631 123.073C79.5631 125.973 75.6313 127.605 71.53 127.61H47.73C43.6287 127.605 39.6969 125.973 36.7969 123.073C33.8969 120.173 32.2653 116.241 32.26 112.14V96.9998H59.26C59.9903 96.9998 60.6908 97.2892 61.2081 97.8047C61.7254 98.3201 62.0174 99.0196 62.02 99.7498V101.75C62.0174 102.48 61.7254 103.18 61.2081 103.695C60.6908 104.21 59.9903 104.5 59.26 104.5H39.72V110.76C39.72 112.023 39.9688 113.274 40.4523 114.441C40.9357 115.608 41.6443 116.669 42.5376 117.562C43.4309 118.455 44.4914 119.164 45.6586 119.648C46.8257 120.131 48.0767 120.38 49.34 120.38H69.84C71.1033 120.38 72.3543 120.131 73.5214 119.648C74.6886 119.164 75.7491 118.455 76.6424 117.562C77.5357 116.669 78.2443 115.608 78.7277 114.441C79.2112 113.274 79.46 112.023 79.46 110.76V90.7598C79.4786 89.4848 79.2434 88.2188 78.7683 87.0354C78.2932 85.852 77.5875 84.775 76.6923 83.8668C75.7972 82.9586 74.7304 82.2374 73.554 81.7453C72.3777 81.2531 71.1152 80.9997 69.84 80.9998H49.34C49.08 80.9998 48.83 81.0598 48.57 81.0798H16.21V96.8598V112.14C16.2179 120.492 19.5392 128.499 25.4449 134.405C31.3506 140.311 39.3581 143.632 47.71 143.64H71.55C79.9019 143.632 87.9094 140.311 93.8151 134.405C99.7208 128.499 103.042 120.492 103.05 112.14V89.0598C103.039 80.7097 99.7169 72.7047 93.8116 66.8012C87.9062 60.8977 79.9002 57.5778 71.55 57.5698Z" fill="#F8B914"/>
</g>
<defs>
<clipPath id="clip0_8001_16975">
<rect width="737.01" height="144.52" fill="white"/>
</clipPath>
</defs>
</svg>
